<?xml version="1.0" encoding="UTF-8" standalone="no"?>
<svg
   width="46.042599"
   height="53.3624"
   viewBox="0 0 46.042599 53.3624"
   fill="none"
   version="1.1"
   id="svg850"
   sodipodi:docname="kasa-icon.svg"
   inkscape:version="1.1.2 (b8e25be833, 2022-02-05)"
   xmlns:inkscape="http://www.inkscape.org/namespaces/inkscape"
   xmlns:sodipodi="http://sodipodi.sourceforge.net/DTD/sodipodi-0.dtd"
   xmlns="http://www.w3.org/2000/svg"
   xmlns:svg="http://www.w3.org/2000/svg">
  <defs
     id="defs854" />
  <sodipodi:namedview
     id="namedview852"
     pagecolor="#ffffff"
     bordercolor="#666666"
     borderopacity="1.0"
     inkscape:pageshadow="2"
     inkscape:pageopacity="0.0"
     inkscape:pagecheckerboard="0"
     showgrid="false"
     inkscape:zoom="5.0853081"
     inkscape:cx="21.139329"
     inkscape:cy="21.139329"
     inkscape:window-width="1920"
     inkscape:window-height="1001"
     inkscape:window-x="-9"
     inkscape:window-y="-9"
     inkscape:window-maximized="1"
     inkscape:current-layer="svg850"
     fit-margin-top="0"
     fit-margin-left="0"
     fit-margin-right="0"
     fit-margin-bottom="0" />
  <path
     d="m -40.1489,20.0109 -11.23436,11.4877 v 16.1199 h -8.84014 v -62.2561 h 8.84014 v 34.8338 l 33.51886,-34.8338 h 10.1293 l -26.3362,27.9782 28.1779,34.2779 h -10.3135 z"
     fill="#ff6060"
     id="path840" />
  <path
     d="m 58.5656,42.6158 3.5,-6.6703 c 4.051,2.7793 10.313,4.8174 16.391,4.8174 7.919,0 11.05,-2.4087 11.05,-6.485 0,-10.5613 -29.652,-1.4823 -29.652,-20.1962 C 59.8546,5.5586 67.4056,0 79.3766,0 c 6.078,0 13.076,1.6675 17.128,4.2616 l -3.683,6.6703 c -4.236,-2.7793 -8.84,-3.7058 -13.445,-3.7058 -7.366,0 -11.05,2.7793 -11.05,6.485 0,11.1172 29.652,2.0382 29.652,20.3815 0,8.5232 -7.736,13.8965 -20.259,13.8965 -7.551,0.1853 -15.286,-2.2235 -19.154,-5.3733 z"
     fill="#ff6060"
     id="path842" />
  <path
     d="m 150.0986,19.0845 v 28.534 h -8.104 v -6.2997 c -2.762,4.2616 -8.103,6.6703 -15.47,6.6703 -10.682,0 -17.312,-5.7439 -17.312,-13.8964 0,-7.5968 4.788,-13.7112 18.785,-13.7112 h 13.445 v -1.6676 c 0,-7.2261 -4.236,-11.3024 -12.524,-11.3024 -5.525,0 -11.234,2.0381 -14.918,5.0027 l -3.499,-6.485 c 4.789,-3.891 11.787,-6.1145 19.338,-6.1145 13.076,0.1853 20.259,6.485 20.259,19.2698 z m -8.472,14.0817 v -6.6703 h -13.076 c -8.472,0 -10.866,3.3352 -10.866,7.2262 0,4.6321 3.867,7.5967 10.313,7.5967 6.446,0.1853 11.603,-2.594 13.629,-8.1526 z"
     fill="#ff6060"
     id="path844" />
  <path
     d="m 31.3088,35.2043 v 12.5995 l 5.3409,-3.1499 V 32.0545 Z"
     fill="#ff6060"
     id="path846" />
  <path
     d="M 46.0426,19.8256 24.1262,7.0408 11.971,0 0,20.9373 l 0.1842,19.6403 21.732,12.7848 2.21,-1.297 V 33.5368 l 9.761,-17.2316 9.9454,5.7438 v 18.5286 l 2.21,-1.297 z"
     fill="#ff6060"
     id="path848" />
</svg>
